<svg xmlns="http://www.w3.org/2000/svg" width="16.102" height="15.409" viewBox="0 0 16.102 15.409">
  <g id="user" transform="translate(0.052 469.383)">
    <path id="Path_12117" data-name="Path 12117" d="M0-454.06c-.014.025,1.438.01,1.455,0a6.5,6.5,0,0,1,3.78-5.913A5.056,5.056,0,0,0,8-459.151a5.057,5.057,0,0,0,2.774-.828,6.636,6.636,0,0,1,1.855,1.291,6.5,6.5,0,0,1,1.918,4.628c0,.04,1.44-.009,1.455,0a7.948,7.948,0,0,0-2.344-5.656,8.052,8.052,0,0,0-1.724-1.3,5.067,5.067,0,0,0,1.158-3.228A5.1,5.1,0,0,0,8-469.333a5.1,5.1,0,0,0-5.091,5.091,5.067,5.067,0,0,0,1.153,3.222A7.952,7.952,0,0,0,0-454.06Zm8-13.818a3.641,3.641,0,0,1,3.636,3.636A3.641,3.641,0,0,1,8-460.606a3.641,3.641,0,0,1-3.636-3.636A3.641,3.641,0,0,1,8-467.878Z" transform="translate(0)" fill="#111f50" stroke="#111f50" stroke-width="0.1"/>
  </g>
</svg>
